<svg width="560" height="306" viewBox="0 0 762 416" fill="none" xmlns="http://www.w3.org/2000/svg">
<mask id="mask0_40_14" style="mask-type:luminance" maskUnits="userSpaceOnUse" x="60" y="221" width="118" height="148">
<path d="M171.955 250.607L123.86 222.979C122.327 222.095 120.587 221.629 118.816 221.629C117.045 221.629 115.305 222.095 113.772 222.979L65.6685 250.607C64.1379 251.493 62.8677 252.764 61.9847 254.292C61.1017 255.819 60.6368 257.551 60.6365 259.314V314.611C60.6378 316.37 61.1034 318.098 61.9865 319.622C62.8696 321.146 64.1393 322.412 65.6685 323.294L89.7324 337.14V365.371C89.7344 365.899 89.8758 366.417 90.1423 366.874C90.4089 367.33 90.7912 367.709 91.2511 367.972C91.711 368.236 92.2323 368.374 92.7627 368.373C93.2931 368.373 93.8141 368.233 94.2735 367.969L172.004 323.318C173.535 322.438 174.806 321.172 175.69 319.648C176.573 318.124 177.038 316.395 177.036 314.635V259.306C177.027 257.54 176.553 255.808 175.662 254.282C174.77 252.755 173.492 251.488 171.955 250.607Z" fill="white"/>
</mask>
<g mask="url(#mask0_40_14)">
<path d="M176.987 253.523L118.828 286.958L60.6365 253.523V320.394L89.7324 337.099V370.543L176.987 320.394V253.523Z" fill="#EF6C00"/>
<path d="M118.828 286.958L60.6365 253.523L118.828 220.087L176.987 253.523L118.828 286.958Z" fill="#FF9800"/>
<path d="M117.797 285.94L61.0047 253.303L60.6365 253.523L118.828 286.958L176.987 253.523L175.621 252.716L117.797 285.94Z" fill="#FF9800"/>
<path d="M118.828 287.374V286.958L61.0047 253.718L60.6365 253.938L118.828 287.374Z" fill="#FF9800"/>
</g>
<path d="M610.75 320.258H602.077L590.818 285.715L579.65 320.258H571.067L556.486 275.248H565.347L575.403 309.238H575.493L586.662 275.248H595.417L606.586 309.238H606.676L616.691 275.248H625.364L610.75 320.258ZM515.321 280.624C519.685 276.063 525.252 273.782 532.021 273.782C538.791 273.782 544.357 276.063 548.721 280.624C553.085 285.185 555.267 290.887 555.267 297.729C555.267 304.571 553.085 310.272 548.721 314.833C544.357 319.395 538.791 321.675 532.021 321.675C525.252 321.675 519.685 319.395 515.321 314.833C510.957 310.272 508.776 304.571 508.776 297.729C508.776 290.887 510.957 285.185 515.321 280.624ZM521.646 309.563C522.981 310.971 524.59 312.092 526.376 312.859C528.161 313.625 530.085 314.021 532.029 314.021C533.974 314.021 535.898 313.625 537.683 312.859C539.469 312.092 541.078 310.971 542.413 309.563C545.331 306.593 546.793 302.659 546.798 297.761C546.804 292.863 545.342 288.929 542.413 285.959C541.078 284.551 539.469 283.43 537.683 282.664C535.898 281.897 533.974 281.502 532.029 281.502C530.085 281.502 528.161 281.897 526.376 282.664C524.59 283.43 522.981 284.551 521.646 285.959C518.722 288.929 517.26 292.863 517.26 297.761C517.26 302.659 518.72 306.593 521.638 309.563H521.646ZM502.295 320.258H493.81V254.503H502.303L502.295 320.258ZM480.612 253.932C482.936 253.867 485.25 254.271 487.412 255.122L484.458 262.379C483.239 261.842 481.912 261.592 480.58 261.646C478.576 261.571 476.622 262.282 475.139 263.625C473.72 264.945 473.014 266.845 473.019 269.327V275.028H484.834V282.742H473.044V320.071H464.551V282.774H456.066V275.061H464.559V269.091C464.559 264.497 466.034 260.823 468.986 258.07C471.937 255.317 475.812 253.938 480.612 253.932ZM426.34 341.386C420.989 341.386 416.625 340.053 413.248 337.387C410.084 335.001 407.576 331.857 405.958 328.248L413.707 325.031C414.604 327.529 416.267 329.683 418.46 331.189C420.758 332.825 423.524 333.682 426.348 333.632C431.023 333.632 434.699 332.239 437.378 329.454C440.056 326.668 441.395 322.886 441.395 318.108V313.791H441.027C439.42 316.113 437.265 318.006 434.751 319.305C431.942 320.801 428.797 321.561 425.612 321.512C419.764 321.512 414.718 319.215 410.475 314.622C406.231 310.028 404.109 304.326 404.109 297.517C404.109 290.718 406.231 285.017 410.475 280.412C414.718 275.807 419.764 273.511 425.612 273.521C428.797 273.475 431.941 274.235 434.751 275.729C437.265 277.028 439.42 278.921 441.027 281.243H441.395V274.996H449.512V317.709C449.512 325.425 447.267 331.289 442.778 335.302C438.28 339.345 432.399 341.522 426.34 341.386ZM426.986 313.831C428.902 313.857 430.802 313.478 432.559 312.718C434.317 311.959 435.892 310.836 437.181 309.425C439.98 306.487 441.379 302.537 441.379 297.574C441.379 292.611 439.98 288.66 437.181 285.723C435.881 284.328 434.305 283.217 432.552 282.459C430.799 281.7 428.907 281.311 426.996 281.315C425.085 281.32 423.195 281.718 421.446 282.485C419.697 283.252 418.126 284.371 416.832 285.772C414.001 288.742 412.586 292.676 412.586 297.574C412.586 302.472 414.001 306.406 416.832 309.376C418.112 310.791 419.679 311.919 421.429 312.686C423.18 313.453 425.074 313.84 426.986 313.823V313.831ZM358.133 280.428C362.497 275.867 368.064 273.587 374.833 273.587C381.602 273.587 387.169 275.867 391.533 280.428C395.897 284.99 398.079 290.691 398.079 297.533C398.079 304.375 395.897 310.077 391.533 314.638C387.169 319.199 381.602 321.48 374.833 321.48C368.064 321.48 362.497 319.218 358.133 314.695C353.769 310.134 351.587 304.432 351.587 297.59C351.587 290.748 353.769 285.028 358.133 280.428ZM364.458 309.368C365.793 310.776 367.402 311.897 369.187 312.663C370.973 313.43 372.897 313.825 374.841 313.825C376.786 313.825 378.709 313.43 380.495 312.663C382.28 311.897 383.89 310.776 385.224 309.368C388.143 306.398 389.605 302.464 389.61 297.566C389.615 292.668 388.154 288.734 385.224 285.764C383.89 284.356 382.28 283.235 380.495 282.468C378.709 281.702 376.786 281.306 374.841 281.306C372.897 281.306 370.973 281.702 369.187 282.468C367.402 283.235 365.793 284.356 364.458 285.764C361.534 288.734 360.072 292.668 360.072 297.566C360.072 302.464 361.54 306.398 364.474 309.368H364.458ZM344.313 320.071H335.828V254.299H344.322L344.313 320.071ZM305.333 321.537C300.944 321.679 296.656 320.206 293.289 317.399C291.704 316.06 290.445 314.381 289.606 312.488C288.767 310.594 288.37 308.536 288.445 306.468C288.363 304.225 288.844 301.996 289.844 299.984C290.844 297.972 292.332 296.239 294.173 294.943C297.991 292.157 302.696 290.765 308.287 290.765C313.273 290.765 317.364 291.682 320.56 293.518V292.231C320.621 290.736 320.346 289.248 319.756 287.872C319.166 286.497 318.275 285.27 317.148 284.281C314.826 282.272 311.829 281.205 308.754 281.292C306.405 281.261 304.093 281.863 302.06 283.035C300.163 284.083 298.711 285.778 297.969 287.808L290.221 284.517C291.268 281.802 293.33 279.307 296.407 277.032C299.483 274.757 303.544 273.608 308.59 273.587C314.372 273.587 319.169 275.27 322.982 278.637C326.795 282.003 328.704 286.749 328.71 292.874V320.071H320.593V313.823H320.225C316.821 318.966 311.857 321.537 305.333 321.537ZM306.716 313.823C310.293 313.792 313.718 312.382 316.273 309.889C317.616 308.752 318.696 307.338 319.436 305.744C320.176 304.151 320.56 302.416 320.56 300.661C318.16 298.701 314.56 297.721 309.76 297.721C305.636 297.721 302.53 298.608 300.44 300.384C299.478 301.122 298.695 302.067 298.153 303.149C297.61 304.231 297.321 305.422 297.307 306.631C297.285 307.677 297.538 308.71 298.04 309.628C298.542 310.547 299.277 311.319 300.17 311.869C302.103 313.172 304.39 313.855 306.724 313.823H306.716ZM280.402 263.764C279.42 264.746 278.127 265.358 276.742 265.497C275.357 265.636 273.967 265.293 272.808 264.525C271.65 263.758 270.794 262.614 270.388 261.289C269.981 259.964 270.049 258.54 270.579 257.259C271.11 255.978 272.07 254.92 273.297 254.265C274.523 253.61 275.94 253.399 277.306 253.668C278.671 253.937 279.9 254.668 280.784 255.738C281.668 256.809 282.152 258.151 282.153 259.536C282.167 260.323 282.018 261.103 281.717 261.83C281.416 262.557 280.969 263.215 280.402 263.764ZM280.402 320.071H271.934V275.061H280.402V320.071ZM211.361 320.071V254.299H231.571C241.722 254.299 249.842 257.345 255.929 263.438C262.017 269.53 265.063 277.445 265.069 287.181C265.069 296.917 262.022 304.831 255.929 310.924C249.836 317.016 241.717 320.065 231.571 320.071H211.361ZM219.854 311.991H231.571C239.208 311.991 245.252 309.819 249.703 305.475C254.154 301.131 256.385 295.038 256.396 287.197C256.396 279.421 254.165 273.342 249.703 268.96C245.241 264.578 239.197 262.39 231.571 262.395H219.854V311.991Z" fill="#757575"/>
<path d="M303.825 166.976H293.183V84.7843H341.518V94.8822H303.826V121.867H337.824V131.732H303.826V166.976H303.825ZM361.53 96.6133C358.992 99.1426 355.009 99.5405 352.016 97.5619C349.022 95.5846 347.854 91.7827 349.226 88.4842C350.597 85.1846 354.126 83.3067 357.653 83.9994C361.18 84.6921 363.724 87.7624 363.726 91.3314C363.76 93.3185 362.962 95.2315 361.521 96.6133H361.53ZM361.53 166.976H350.887V110.729H361.53V166.976ZM384.884 166.976H374.241V110.729H384.414V119.912H384.875C386.104 116.676 388.464 113.986 391.524 112.334C394.448 110.472 397.828 109.439 401.301 109.348C404.027 109.271 406.739 109.74 409.278 110.729L405.23 120.594C403.404 119.991 401.486 119.717 399.566 119.786C395.664 119.807 391.949 121.453 389.33 124.324C386.36 127.35 384.875 131.311 384.875 136.207L384.884 166.976ZM438.441 168.769C429.883 168.769 422.926 165.938 417.572 160.277C412.218 154.617 409.537 147.474 409.531 138.852C409.374 131.091 412.159 123.553 417.337 117.733C422.295 111.941 429.631 108.69 437.285 108.89C445.687 108.89 452.415 111.607 457.469 117.042C462.522 122.477 465.046 129.747 465.039 138.851L464.921 140.807H420.154C420.462 146.468 422.37 150.952 425.882 154.259C429.166 157.458 433.595 159.233 438.195 159.191C445.827 159.191 450.991 155.977 453.69 149.551L463.177 153.451C461.254 157.898 458.083 161.703 454.042 164.41C449.796 167.316 444.595 168.769 438.439 168.769H438.441ZM453.711 132.001C453.481 128.785 451.997 125.723 449.256 122.818C446.516 119.912 442.441 118.489 437.033 118.549C433.281 118.483 429.637 119.792 426.797 122.226C423.82 124.814 421.738 128.264 420.843 132.091L453.711 132.001ZM503.491 168.769C499.464 168.848 495.482 167.923 491.909 166.078C488.771 164.507 486.115 162.13 484.22 159.191H483.759V166.976H473.578V84.7843H484.22V110.729L483.759 118.532H484.22C486.115 115.594 488.771 113.215 491.909 111.644C495.477 109.778 499.459 108.832 503.492 108.891C510.815 108.891 517.139 111.76 522.464 117.499C527.788 123.24 530.447 130.357 530.441 138.852C530.436 147.348 527.782 154.465 522.464 160.204C517.145 165.945 510.821 168.799 503.492 168.769H503.491ZM501.756 159.128C506.605 159.167 511.236 157.139 514.476 153.559C518.025 149.847 519.798 144.929 519.798 138.808C519.798 132.685 518.025 127.768 514.476 124.055C511.199 120.519 506.583 118.501 501.741 118.49C496.9 118.481 492.274 120.479 488.982 124C485.476 127.671 483.723 132.607 483.723 138.806C483.723 145.007 485.494 149.957 489.035 153.657C492.296 157.224 496.941 159.231 501.792 159.173L501.756 159.128ZM557.536 168.769C551.513 168.769 546.484 167.048 542.448 163.603C538.414 160.161 536.389 155.608 536.377 149.945C536.377 143.824 538.768 139.022 543.551 135.543C548.333 132.064 554.23 130.323 561.241 130.323C567.487 130.323 572.607 131.472 576.6 133.767V132.162C576.751 128.381 575.179 124.734 572.317 122.235C569.404 119.744 565.654 118.429 561.81 118.549C558.868 118.512 555.971 119.264 553.426 120.729C551.041 122.039 549.213 124.159 548.276 126.701L538.564 122.567C539.877 119.189 542.46 116.056 546.328 113.169C550.194 110.28 555.272 108.845 561.596 108.863C568.824 108.863 574.847 110.956 579.665 115.141C584.484 119.326 586.875 125.257 586.838 132.934V166.976H576.63V159.173H576.169C571.923 165.571 565.716 168.757 557.549 168.757L557.536 168.769ZM559.27 159.128C563.743 159.113 568.036 157.38 571.251 154.295C574.677 151.428 576.659 147.21 576.671 142.762C573.66 140.311 569.143 139.085 563.12 139.085C557.952 139.085 554.058 140.194 551.437 142.412C548.993 144.277 547.545 147.153 547.508 150.214C547.458 152.878 548.833 155.37 551.123 156.76C553.53 158.367 556.372 159.208 559.272 159.173V159.128H559.27ZM618.132 168.769C611.808 168.769 606.585 167.238 602.466 164.177C598.457 161.239 595.334 157.27 593.432 152.699L602.918 148.798C605.929 155.841 611.048 159.361 618.276 159.361C621.147 159.479 623.986 158.718 626.408 157.183C628.404 155.952 629.61 153.776 629.588 151.443C629.588 147.772 627.004 145.286 621.824 143.981L610.377 141.229C606.611 140.239 603.101 138.459 600.087 136.009C596.878 133.526 595.069 129.661 595.226 125.625C595.226 120.651 597.442 116.615 601.876 113.518C606.513 110.358 612.036 108.732 617.659 108.872C622.353 108.798 626.983 109.971 631.066 112.271C634.921 114.444 637.903 117.872 639.504 121.974L630.263 125.723C628.185 120.749 623.866 118.261 617.307 118.261C614.517 118.169 611.756 118.846 609.329 120.217C607.341 121.239 606.094 123.276 606.094 125.499C606.094 128.716 608.6 130.897 613.612 132.046L624.823 134.692C630.141 135.886 634.074 137.979 636.623 140.968C639.091 143.761 640.446 147.352 640.435 151.066C640.484 156.019 638.169 160.702 634.192 163.693C630.03 167.077 624.673 168.769 618.12 168.769H618.132ZM675.375 168.769C666.816 168.769 659.859 165.938 654.505 160.277C649.151 154.617 646.47 147.458 646.464 138.808C646.306 131.045 649.093 123.508 654.27 117.687C659.248 111.909 666.589 108.676 674.245 108.89C682.676 108.89 689.405 111.607 694.429 117.042C699.452 122.477 701.976 129.747 702 138.852L701.882 140.807H657.079C657.385 146.468 659.295 150.953 662.807 154.259C666.1 157.459 670.54 159.227 675.148 159.173C682.779 159.173 687.944 155.958 690.643 149.533L700.129 153.434C698.206 157.881 695.037 161.686 690.995 164.392C686.749 167.31 681.541 168.769 675.373 168.769H675.375ZM690.644 132.001C690.415 128.785 688.93 125.723 686.189 122.818C683.449 119.912 679.38 118.489 673.984 118.549C670.232 118.484 666.589 119.793 663.748 122.226C660.771 124.814 658.69 128.264 657.794 132.091L690.644 132.001Z" fill="#757575"/>
<path d="M134.063 173.285L153.634 48.0587C153.873 46.5229 155.067 45.3122 156.6 45.0514C158.133 44.7905 159.66 45.5402 160.391 46.9111L180.631 84.6593L188.698 69.3002C189.323 68.1125 190.554 67.3689 191.897 67.3689C193.239 67.3689 194.47 68.1125 195.095 69.3002L249.712 173.285H134.063Z" fill="#FFA000"/>
<path d="M201.673 124.504L180.621 84.6411L134.063 173.285L201.673 124.504Z" fill="#F57C00"/>
<path d="M249.714 173.285L234.724 80.5298C234.498 79.1978 233.547 78.1036 232.259 77.6911C230.972 77.2787 229.564 77.622 228.607 78.5779L134.063 173.284L186.377 202.621C189.662 204.455 193.663 204.455 196.948 202.621L249.714 173.285Z" fill="#FFCA28"/>
<path d="M234.724 80.53C234.497 79.198 233.546 78.1037 232.259 77.6913C230.972 77.2788 229.563 77.6221 228.607 78.5781L209.842 97.3897L195.087 69.299C194.462 68.1114 193.23 67.3677 191.888 67.3677C190.547 67.3677 189.314 68.1114 188.689 69.299L180.622 84.6594L160.383 46.9111C159.649 45.5391 158.12 44.7918 156.586 45.0538C155.051 45.3159 153.861 46.5302 153.624 48.0672L134.063 173.285H134L134.063 173.357L134.579 173.61L228.58 79.5C229.536 78.5405 230.948 78.1947 232.239 78.606C233.529 79.0172 234.482 80.1163 234.706 81.4519L249.568 173.375L249.713 173.285L234.724 80.53ZM134.235 173.113L153.634 48.9528C153.869 47.4158 155.063 46.2014 156.597 45.9394C158.129 45.6774 159.658 46.4247 160.394 47.7967L180.631 85.5449L188.698 70.1858C189.323 68.9982 190.554 68.2545 191.897 68.2545C193.238 68.2545 194.47 68.9982 195.095 70.1858L209.551 97.6797L134.235 173.113Z" fill="white" fill-opacity="0.2"/>
<path d="M196.948 201.736C193.663 203.57 189.662 203.57 186.377 201.736L134.191 172.481L134.063 173.285L186.377 202.613C189.662 204.448 193.663 204.448 196.948 202.613L249.714 173.285L249.578 172.454L196.948 201.736Z" fill="#A52714" fill-opacity="0.2"/>
</svg>
