<?xml version="1.0" encoding="utf-8"?>
<svg width="512px" height="748px" viewBox="0 0 512 748" version="1.1" xmlns:xlink="http://www.w3.org/1999/xlink" xmlns="http://www.w3.org/2000/svg">
  <defs>
    <path d="M512 0L512 0L512 748L0 748L0 0L512 0Z" id="path_1" />
    <clipPath id="clip_1">
      <use xlink:href="#path_1" clip-rule="evenodd" fill-rule="evenodd" />
    </clipPath>
  </defs>
  <g id="Swoop" clip-path="url(#clip_1)">
    <path d="M512 0L512 0L512 748L0 748L0 0L512 0Z" id="Swoop" fill="none" stroke="none" />
    <path d="M481 2.99994C494.257 2.99994 505 13.7433 505 26.9999L505 724C505 737.257 494.257 748 481 748L31 748C17.7434 748 7 737.257 7 724L7 26.9999C7 13.7433 17.7434 2.99994 31 2.99994L481 2.99994Z" id="Swoop" fill="#87C8EB" stroke="none" />
    <path d="M0 -678L512 -678L512 70L0 70L0 -678Z" id="Swoop-2" fill="#FFFFFC" fill-rule="evenodd" stroke="none" />
  </g>
</svg>