<?xml version="1.0" encoding="utf-8"?>
<svg width="200px" height="40px" viewBox="0 0 200 40" version="1.1" xmlns:xlink="http://www.w3.org/1999/xlink" xmlns="http://www.w3.org/2000/svg">
  <defs>
    <path d="M200 0L200 0L200 40L0 40L0 0L200 0Z" id="path_1" />
    <path d="M3.5 20L196.492 20" id="path_2" />
    <clipPath id="clip_1">
      <use xlink:href="#path_1" clip-rule="evenodd" fill-rule="evenodd" />
    </clipPath>
    <clipPath id="clip_2">
      <use xlink:href="#path_2" />
    </clipPath>
  </defs>
  <g id="Logo" clip-path="url(#clip_1)">
    <path d="M200 0L200 0L200 40L0 40L0 0L200 0Z" id="Logo" fill="#FFFFFF" stroke="none" />
    <path d="M2 4L198 4L198 36L2 36L2 4Z" id="Rectangle" fill="#D2D2D2" fill-rule="evenodd" stroke="none" />
    <g id="MICHAEL" transform="translate(4 -2)">
      <g id="MICHAEL">
        <path d="M1.84943 5.07102L4.05682 5.07102L9.24716 17.7486L9.42614 17.7486L14.6165 5.07102L16.8239 5.07102L16.8239 20.3438L15.0938 20.3438L15.0938 8.74006L14.9446 8.74006L10.1719 20.3438L8.50142 20.3438L3.72869 8.74006L3.57955 8.74006L3.57955 20.3438L1.84943 20.3438L1.84943 5.07102ZM38.5722 5.07102L38.5722 20.3438L36.7227 20.3438L36.7227 5.07102L38.5722 5.07102ZM70.7608 9.84375L68.9114 9.84375Q68.6877 8.7848 68.0538 8.06143Q67.4199 7.33807 66.525 6.9652Q65.6301 6.59233 64.6159 6.59233Q63.2288 6.59233 62.1065 7.29332Q60.9842 7.99432 60.3242 9.35902Q59.6642 10.7237 59.6642 12.7074Q59.6642 14.6911 60.3242 16.0558Q60.9842 17.4205 62.1065 18.1214Q63.2288 18.8224 64.6159 18.8224Q65.6301 18.8224 66.525 18.4496Q67.4199 18.0767 68.0538 17.3533Q68.6877 16.63 68.9114 15.571L70.7608 15.571Q70.4774 17.1371 69.6049 18.252Q68.7324 19.3668 67.4423 19.9597Q66.1521 20.5526 64.6159 20.5526Q62.6621 20.5526 61.1408 19.598Q59.6195 18.6435 58.747 16.8835Q57.8744 15.1236 57.8744 12.7074Q57.8744 10.2912 58.747 8.53125Q59.6195 6.77131 61.1408 5.81676Q62.6621 4.86222 64.6159 4.86222Q66.1521 4.86222 67.4423 5.45508Q68.7324 6.04794 69.6049 7.16282Q70.4774 8.2777 70.7608 9.84375ZM89.9438 20.3438L89.9438 5.07102L91.7932 5.07102L91.7932 11.8722L99.9367 11.8722L99.9367 5.07102L101.786 5.07102L101.786 20.3438L99.9367 20.3438L99.9367 13.5128L91.7932 13.5128L91.7932 20.3438L89.9438 20.3438ZM122.311 20.3438L120.372 20.3438L125.98 5.07102L127.89 5.07102L133.497 20.3438L131.559 20.3438L130.022 16.0185L123.848 16.0185L122.311 20.3438ZM124.429 14.3778L129.441 14.3778L126.995 7.48722L126.875 7.48722L124.429 14.3778ZM152.084 20.3438L152.084 5.07102L161.301 5.07102L161.301 6.71165L153.933 6.71165L153.933 11.8722L160.824 11.8722L160.824 13.5128L153.933 13.5128L153.933 18.7031L161.42 18.7031L161.42 20.3438L152.084 20.3438ZM180.842 20.3438L180.842 5.07102L182.691 5.07102L182.691 18.7031L189.791 18.7031L189.791 20.3438L180.842 20.3438Z" />
      </g>
    </g>
    <g id="PIETROSKI" transform="translate(4 17)">
      <g id="PIETROSKI">
        <path d="M1.84943 20.3438L1.84943 5.07102L7.00994 5.07102Q8.80717 5.07102 9.95188 5.71609Q11.0966 6.36115 11.6484 7.45739Q12.2003 8.55362 12.2003 9.90341Q12.2003 11.2532 11.6522 12.3569Q11.104 13.4606 9.96307 14.1131Q8.82209 14.7656 7.03977 14.7656L3.69886 14.7656L3.69886 20.3438L1.84943 20.3438ZM3.69886 13.125L6.98011 13.125Q8.82209 13.125 9.60139 12.2003Q10.3807 11.2756 10.3807 9.90341Q10.3807 8.52379 9.59766 7.61772Q8.81463 6.71165 6.95028 6.71165L3.69886 6.71165L3.69886 13.125ZM27.6327 5.07102L27.6327 20.3438L25.7832 20.3438L25.7832 5.07102L27.6327 5.07102ZM41.9315 20.3438L41.9315 5.07102L51.1489 5.07102L51.1489 6.71165L43.781 6.71165L43.781 11.8722L50.6716 11.8722L50.6716 13.5128L43.781 13.5128L43.781 18.7031L51.2682 18.7031L51.2682 20.3438L41.9315 20.3438ZM64.2545 6.71165L64.2545 5.07102L75.7091 5.07102L75.7091 6.71165L70.9065 6.71165L70.9065 20.3438L69.0571 20.3438L69.0571 6.71165L64.2545 6.71165ZM89.1727 20.3438L89.1727 5.07102L94.3332 5.07102Q96.123 5.07102 97.2714 5.6788Q98.4199 6.28658 98.9717 7.34553Q99.5236 8.40448 99.5236 9.75426Q99.5236 11.2756 98.8263 12.4054Q98.129 13.5352 96.6674 14.0348L100.12 20.3438L97.9724 20.3438L94.7509 14.3704Q94.5644 14.3778 94.3631 14.3778L91.0222 14.3778L91.0222 20.3438L89.1727 20.3438ZM91.0222 12.7074L94.3034 12.7074Q96.1379 12.7074 96.921 11.9169Q97.704 11.1264 97.704 9.75426Q97.704 8.37465 96.9172 7.54315Q96.1305 6.71165 94.2736 6.71165L91.0222 6.71165L91.0222 12.7074ZM126.082 12.7074Q126.082 15.1236 125.21 16.8835Q124.337 18.6435 122.816 19.598Q121.295 20.5526 119.341 20.5526Q117.387 20.5526 115.866 19.598Q114.344 18.6435 113.472 16.8835Q112.599 15.1236 112.599 12.7074Q112.599 10.2912 113.472 8.53125Q114.344 6.77131 115.866 5.81676Q117.387 4.86222 119.341 4.86222Q121.295 4.86222 122.816 5.81676Q124.337 6.77131 125.21 8.53125Q126.082 10.2912 126.082 12.7074ZM124.293 12.7074Q124.293 10.7237 123.633 9.35902Q122.973 7.99432 121.85 7.29332Q120.728 6.59233 119.341 6.59233Q117.954 6.59233 116.831 7.29332Q115.709 7.99432 115.049 9.35902Q114.389 10.7237 114.389 12.7074Q114.389 14.6911 115.049 16.0558Q115.709 17.4205 116.831 18.1214Q117.954 18.8224 119.341 18.8224Q120.728 18.8224 121.85 18.1214Q122.973 17.4205 123.633 16.0558Q124.293 14.6911 124.293 12.7074ZM148.137 8.8892Q148.003 7.75568 147.048 7.12926Q146.094 6.50284 144.707 6.50284Q143.185 6.50284 142.261 7.22248Q141.336 7.94212 141.336 9.03835Q141.336 9.85866 141.839 10.362Q142.343 10.8654 143.032 11.1451Q143.722 11.4247 144.289 11.5739L145.84 11.9915Q146.437 12.1481 147.171 12.424Q147.906 12.6999 148.581 13.1735Q149.256 13.647 149.696 14.3853Q150.136 15.1236 150.136 16.1974Q150.136 17.4354 149.49 18.4347Q148.845 19.4339 147.611 20.0231Q146.377 20.6122 144.617 20.6122Q142.156 20.6122 140.709 19.4489Q139.263 18.2855 139.128 16.4063L141.038 16.4063Q141.112 17.2713 141.623 17.8343Q142.134 18.3974 142.92 18.6696Q143.707 18.9418 144.617 18.9418Q145.676 18.9418 146.519 18.595Q147.361 18.2482 147.854 17.6255Q148.346 17.0028 148.346 16.1676Q148.346 15.407 147.921 14.9297Q147.496 14.4524 146.802 14.1541Q146.109 13.8558 145.303 13.6321L143.424 13.0952Q141.634 12.5806 140.59 11.6261Q139.546 10.6715 139.546 9.12784Q139.546 7.84517 140.243 6.8869Q140.941 5.92862 142.123 5.39542Q143.305 4.86222 144.766 4.86222Q146.243 4.86222 147.391 5.38796Q148.54 5.91371 149.215 6.82351Q149.889 7.73331 149.927 8.8892L148.137 8.8892ZM163.778 20.3438L163.778 5.07102L165.628 5.07102L165.628 12.6477L165.807 12.6477L172.667 5.07102L175.084 5.07102L168.67 11.9616L175.084 20.3438L172.846 20.3438L167.537 13.2443L165.628 15.392L165.628 20.3438L163.778 20.3438ZM189.919 5.07102L189.919 20.3438L188.07 20.3438L188.07 5.07102L189.919 5.07102Z" />
      </g>
    </g>
    <g id="Line">
      <g clip-path="url(#clip_2)">
        <use xlink:href="#path_2" fill="none" stroke="#000000" stroke-width="2" stroke-linecap="square" />
      </g>
    </g>
  </g>
</svg>